{
	"asset":{
		"generator":"Khronos glTF Blender I/O v4.2.57",
		"version":"2.0"
	},
	"scene":0,
	"scenes":[
		{
			"name":"Scene",
			"nodes":[
				0
			]
		}
	],
	"nodes":[
		{
			"mesh":0,
			"name":"Cube"
		}
	],
	"materials":[
		{
			"doubleSided":true,
			"name":"Material",
			"pbrMetallicRoughness":{
				"baseColorFactor":[
					0,
					0.8005527257919312,
					0.0012639904161915183,
					1
				],
				"metallicFactor":0,
				"roughnessFactor":0.5
			}
		}
	],
	"meshes":[
		{
			"name":"Cube",
			"primitives":[
				{
					"attributes":{
						"POSITION":0,
						"NORMAL":1,
						"TEXCOORD_0":2
					},
					"indices":3,
					"material":0
				}
			]
		}
	],
	"accessors":[
		{
			"bufferView":0,
			"componentType":5126,
			"count":1570,
			"max":[
				0.9013708233833313,
				4.620089530944824,
				0.8931224346160889
			],
			"min":[
				-0.9013709425926208,
				-0.8395062685012817,
				-1.794062852859497
			],
			"type":"VEC3"
		},
		{
			"bufferView":1,
			"componentType":5126,
			"count":1570,
			"type":"VEC3"
		},
		{
			"bufferView":2,
			"componentType":5126,
			"count":1570,
			"type":"VEC2"
		},
		{
			"bufferView":3,
			"componentType":5123,
			"count":2496,
			"type":"SCALAR"
		}
	],
	"bufferViews":[
		{
			"buffer":0,
			"byteLength":18840,
			"byteOffset":0,
			"target":34962
		},
		{
			"buffer":0,
			"byteLength":18840,
			"byteOffset":18840,
			"target":34962
		},
		{
			"buffer":0,
			"byteLength":12560,
			"byteOffset":37680,
			"target":34962
		},
		{
			"buffer":0,
			"byteLength":4992,
			"byteOffset":50240,
			"target":34963
		}
	],
	"buffers":[
		{
			"byteLength":55232,
			"uri":"cactus.bin"
		}
	]
}
