{
	"asset":{
		"generator":"Khronos glTF Blender I/O v4.2.57",
		"version":"2.0"
	},
	"scene":0,
	"scenes":[
		{
			"name":"Scene",
			"nodes":[
				0
			]
		}
	],
	"nodes":[
		{
			"mesh":0,
			"name":"Cube"
		}
	],
	"materials":[
		{
			"doubleSided":true,
			"name":"Material",
			"pbrMetallicRoughness":{
				"baseColorTexture":{
					"index":0
				},
				"metallicFactor":0,
				"roughnessFactor":0.5
			}
		}
	],
	"meshes":[
		{
			"name":"Cube",
			"primitives":[
				{
					"attributes":{
						"POSITION":0,
						"NORMAL":1,
						"TEXCOORD_0":2
					},
					"indices":3,
					"material":0
				}
			]
		}
	],
	"textures":[
		{
			"sampler":0,
			"source":0
		}
	],
	"images":[
		{
			"mimeType":"image/png",
			"name":"Capi copy",
			"uri":"Capi%20copy.png"
		}
	],
	"accessors":[
		{
			"bufferView":0,
			"componentType":5126,
			"count":1792,
			"max":[
				2.848536968231201,
				2.1825523376464844,
				0.8721402883529663
			],
			"min":[
				-1.8324609994888306,
				-1.2618244886398315,
				-0.8720851540565491
			],
			"type":"VEC3"
		},
		{
			"bufferView":1,
			"componentType":5126,
			"count":1792,
			"type":"VEC3"
		},
		{
			"bufferView":2,
			"componentType":5126,
			"count":1792,
			"type":"VEC2"
		},
		{
			"bufferView":3,
			"componentType":5123,
			"count":2688,
			"type":"SCALAR"
		}
	],
	"bufferViews":[
		{
			"buffer":0,
			"byteLength":21504,
			"byteOffset":0,
			"target":34962
		},
		{
			"buffer":0,
			"byteLength":21504,
			"byteOffset":21504,
			"target":34962
		},
		{
			"buffer":0,
			"byteLength":14336,
			"byteOffset":43008,
			"target":34962
		},
		{
			"buffer":0,
			"byteLength":5376,
			"byteOffset":57344,
			"target":34963
		}
	],
	"samplers":[
		{
			"magFilter":9729,
			"minFilter":9987
		}
	],
	"buffers":[
		{
			"byteLength":62720,
			"uri":"capi.bin"
		}
	]
}
