{
	"asset":{
		"generator":"Khronos glTF Blender I/O v4.2.57",
		"version":"2.0"
	},
	"scene":0,
	"scenes":[
		{
			"name":"Scene",
			"nodes":[
				0
			]
		}
	],
	"nodes":[
		{
			"mesh":0,
			"name":"Cube"
		}
	],
	"materials":[
		{
			"doubleSided":true,
			"name":"Material",
			"pbrMetallicRoughness":{
				"baseColorFactor":[
					0.2371543049812317,
					0.8001724481582642,
					0.0895337164402008,
					1
				],
				"metallicFactor":0,
				"roughnessFactor":0.5
			}
		}
	],
	"meshes":[
		{
			"name":"Cube",
			"primitives":[
				{
					"attributes":{
						"POSITION":0,
						"NORMAL":1,
						"TEXCOORD_0":2
					},
					"indices":3,
					"material":0
				}
			]
		}
	],
	"accessors":[
		{
			"bufferView":0,
			"componentType":5126,
			"count":4265,
			"max":[
				3.486696243286133,
				5.221314907073975,
				3.4866957664489746
			],
			"min":[
				-3.4866957664489746,
				-1.0000001192092896,
				-3.4866957664489746
			],
			"type":"VEC3"
		},
		{
			"bufferView":1,
			"componentType":5126,
			"count":4265,
			"type":"VEC3"
		},
		{
			"bufferView":2,
			"componentType":5126,
			"count":4265,
			"type":"VEC2"
		},
		{
			"bufferView":3,
			"componentType":5123,
			"count":7680,
			"type":"SCALAR"
		}
	],
	"bufferViews":[
		{
			"buffer":0,
			"byteLength":51180,
			"byteOffset":0,
			"target":34962
		},
		{
			"buffer":0,
			"byteLength":51180,
			"byteOffset":51180,
			"target":34962
		},
		{
			"buffer":0,
			"byteLength":34120,
			"byteOffset":102360,
			"target":34962
		},
		{
			"buffer":0,
			"byteLength":15360,
			"byteOffset":136480,
			"target":34963
		}
	],
	"buffers":[
		{
			"byteLength":151840,
			"uri":"tower-2.bin"
		}
	]
}
